<?xml version="1.0" encoding="UTF-8" standalone="no"?>
<!-- Generator: Adobe Illustrator 16.0.0, SVG Export Plug-In . SVG Version: 6.00 Build 0)  -->

<svg
   xmlns:dc="http://purl.org/dc/elements/1.1/"
   xmlns:cc="http://creativecommons.org/ns#"
   xmlns:rdf="http://www.w3.org/1999/02/22-rdf-syntax-ns#"
   xmlns:svg="http://www.w3.org/2000/svg"
   xmlns="http://www.w3.org/2000/svg"
   xmlns:sodipodi="http://sodipodi.sourceforge.net/DTD/sodipodi-0.dtd"
   xmlns:inkscape="http://www.inkscape.org/namespaces/inkscape"
   version="1.1"
   id="Capa_1"
   x="0px"
   y="0px"
   width="612px"
   height="612px"
   viewBox="0 0 612 612"
   style="enable-background:new 0 0 612 612;"
   xml:space="preserve"
   inkscape:version="0.91 r13725"
   sodipodi:docname="gem.svg"><metadata
     id="metadata4240"><rdf:RDF><cc:Work
         rdf:about=""><dc:format>image/svg+xml</dc:format><dc:type
           rdf:resource="http://purl.org/dc/dcmitype/StillImage" /></cc:Work></rdf:RDF></metadata><defs
     id="defs4238" /><sodipodi:namedview
     pagecolor="#ffffff"
     bordercolor="#666666"
     borderopacity="1"
     objecttolerance="10"
     gridtolerance="10"
     guidetolerance="10"
     inkscape:pageopacity="0"
     inkscape:pageshadow="2"
     inkscape:window-width="1440"
     inkscape:window-height="855"
     id="namedview4236"
     showgrid="false"
     inkscape:zoom="0.52859477"
     inkscape:cx="617.08195"
     inkscape:cy="272.36901"
     inkscape:window-x="0"
     inkscape:window-y="1"
     inkscape:window-maximized="1"
     inkscape:current-layer="Capa_1" /><path
     inkscape:connector-curvature="0"
     id="foreground"
     d="M 265.551,74.371 278.323,59.51 138.71,59.51 0,219.445 l 140.777,0 124.774,-145.074 z m -91.353,145.085 263.68,0 -71.684,-83.378 -60.14,-69.943 -90.885,105.67 -40.971,47.651 z M 1.687,244.793 263.833,520.647 138.471,244.793 l -136.784,0 z m 444.132,-0.021 -22.846,0 -96.053,0.021 -160.664,0 138.96,305.75 0.893,1.947 132.399,-291.574 7.311,-16.144 z m -97.259,275.483 261.732,-275.451 -136.665,0 L 348.56,520.255 Z M 612,219.445 473.246,59.509 l -139.515,0 137.535,159.936 140.734,0 z" /><g
     id="g4206" /><g
     id="g4208" /><g
     id="g4210" /><g
     id="g4212" /><g
     id="g4214" /><g
     id="g4216" /><g
     id="g4218" /><g
     id="g4220" /><g
     id="g4222" /><g
     id="g4224" /><g
     id="g4226" /><g
     id="g4228" /><g
     id="g4230" /><g
     id="g4232" /><g
     id="g4234" /></svg>