<?xml version="1.0" encoding="UTF-8" standalone="no"?>
<svg
   xmlns:dc="http://purl.org/dc/elements/1.1/"
   xmlns:cc="http://creativecommons.org/ns#"
   xmlns:rdf="http://www.w3.org/1999/02/22-rdf-syntax-ns#"
   xmlns:svg="http://www.w3.org/2000/svg"
   xmlns="http://www.w3.org/2000/svg"
   xmlns:sodipodi="http://sodipodi.sourceforge.net/DTD/sodipodi-0.dtd"
   xmlns:inkscape="http://www.inkscape.org/namespaces/inkscape"
   height="100px"
   width="100px"
   fill="#000000"
   version="1.1"
   x="0px"
   y="0px"
   viewBox="0 0 100 100"
   enable-background="new 0 0 100 100"
   xml:space="preserve"
   id="svg4170"
   inkscape:version="0.91 r13725"
   sodipodi:docname="meeple.svg"><metadata
     id="metadata4178"><rdf:RDF><cc:Work
         rdf:about=""><dc:format>image/svg+xml</dc:format><dc:type
           rdf:resource="http://purl.org/dc/dcmitype/StillImage" /></cc:Work></rdf:RDF></metadata><defs
     id="defs4176" /><sodipodi:namedview
     pagecolor="#ffffff"
     bordercolor="#666666"
     borderopacity="1"
     objecttolerance="10"
     gridtolerance="10"
     guidetolerance="10"
     inkscape:pageopacity="0"
     inkscape:pageshadow="2"
     inkscape:window-width="1393"
     inkscape:window-height="825"
     id="namedview4174"
     showgrid="false"
     inkscape:zoom="6.19"
     inkscape:cx="50"
     inkscape:cy="50"
     inkscape:window-x="0"
     inkscape:window-y="0"
     inkscape:window-maximized="0"
     inkscape:current-layer="svg4170" /><path
     d="M 99.992,43.019 C 100.57,29.262 67.638,22.564 66.211,20.996 65.5,20.216 67.861,-0.015 50,0 32.139,-0.015 34.499,20.216 33.788,20.996 32.361,22.564 -0.569,29.262 0.008,43.019 0.584,56.777 18.059,49.711 21.786,53.76 25.046,57.304 6.507,79.989 4.433,94.394 3.757,99.089 5.077,100 9.64,100 c 8.276,0 16.177,-0.005 23.453,-0.005 3.287,0 4.456,-1.889 6.152,-4.492 C 42.999,89.741 47.533,80.479 50,80.48 c 2.466,-0.001 7.001,9.261 10.755,15.022 1.696,2.604 2.864,4.492 6.151,4.492 7.275,0 15.177,0.005 23.453,0.005 4.563,0 5.884,-0.911 5.207,-5.606 C 93.493,79.988 74.955,57.303 78.213,53.759 81.94,49.711 99.417,56.777 99.992,43.019 Z"
     id="foreground"
     inkscape:connector-curvature="0"
     style="clip-rule:evenodd;fill-rule:evenodd" /></svg>