<?xml version="1.0" encoding="UTF-8" standalone="no"?>
<svg
   xmlns:dc="http://purl.org/dc/elements/1.1/"
   xmlns:cc="http://creativecommons.org/ns#"
   xmlns:rdf="http://www.w3.org/1999/02/22-rdf-syntax-ns#"
   xmlns:svg="http://www.w3.org/2000/svg"
   xmlns="http://www.w3.org/2000/svg"
   xmlns:sodipodi="http://sodipodi.sourceforge.net/DTD/sodipodi-0.dtd"
   xmlns:inkscape="http://www.inkscape.org/namespaces/inkscape"
   width="130"
   height="130.00011"
   viewBox="0 0 34.395832 34.395863"
   version="1.1"
   id="svg845"
   inkscape:version="1.0 (4035a4f, 2020-05-01)"
   sodipodi:docname="canvas_bg.svg">
  <defs
     id="defs839" />
  <sodipodi:namedview
     id="base"
     pagecolor="#ffffff"
     bordercolor="#666666"
     borderopacity="1.0"
     inkscape:pageopacity="0.0"
     inkscape:pageshadow="2"
     inkscape:zoom="2.5083109"
     inkscape:cx="70.811689"
     inkscape:cy="89.619814"
     inkscape:document-units="mm"
     inkscape:current-layer="layer1"
     inkscape:document-rotation="0"
     showgrid="false"
     fit-margin-top="0"
     fit-margin-left="0"
     fit-margin-right="0"
     fit-margin-bottom="0"
     inkscape:window-width="1680"
     inkscape:window-height="997"
     inkscape:window-x="0"
     inkscape:window-y="25"
     inkscape:window-maximized="0"
     units="px" />
  <metadata
     id="metadata842">
    <rdf:RDF>
      <cc:Work
         rdf:about="">
        <dc:format>image/svg+xml</dc:format>
        <dc:type
           rdf:resource="http://purl.org/dc/dcmitype/StillImage" />
        <dc:title></dc:title>
      </cc:Work>
    </rdf:RDF>
  </metadata>
  <g
     inkscape:label="Layer 1"
     inkscape:groupmode="layer"
     id="layer1"
     transform="translate(0,2.8294168e-5)">
    <path
       id="path1408"
       style="fill:#808080;stroke-width:1.5219"
       d="M 14.886719,0 A 15,15 0 0 0 0,15 15,15 0 0 0 10,29.140625 V 100.85742 A 15,15 0 0 0 0,115 15,15 0 0 0 15,130 15,15 0 0 0 29.140625,120 H 100.85742 A 15,15 0 0 0 115,130 15,15 0 0 0 130,115 15,15 0 0 0 120,100.85938 V 29.142578 A 15,15 0 0 0 130,15 15,15 0 0 0 115,0 15,15 0 0 0 100.85938,10 H 29.142578 A 15,15 0 0 0 15,0 15,15 0 0 0 14.886719,0 Z M 29.140625,20 H 100.85742 A 15,15 0 0 0 110,29.140625 V 100.85742 A 15,15 0 0 0 100.85938,110 H 29.142578 A 15,15 0 0 0 20,100.85938 V 29.142578 A 15,15 0 0 0 29.140625,20 Z"
       transform="scale(0.26458333)" />
  </g>
</svg>
