<?xml version="1.0" encoding="UTF-8" standalone="no"?>
<svg
   xmlns:dc="http://purl.org/dc/elements/1.1/"
   xmlns:cc="http://creativecommons.org/ns#"
   xmlns:rdf="http://www.w3.org/1999/02/22-rdf-syntax-ns#"
   xmlns:svg="http://www.w3.org/2000/svg"
   xmlns="http://www.w3.org/2000/svg"
   xmlns:sodipodi="http://sodipodi.sourceforge.net/DTD/sodipodi-0.dtd"
   xmlns:inkscape="http://www.inkscape.org/namespaces/inkscape"
   inkscape:version="1.0 (4035a4f, 2020-05-01)"
   sodipodi:docname="card_front.svg"
   id="svg22"
   y="0px"
   x="0px"
   version="1.1"
   viewBox="0 0 24 24"
   width="24"
   height="24">
  <metadata
     id="metadata28">
    <rdf:RDF>
      <cc:Work
         rdf:about="">
        <dc:format>image/svg+xml</dc:format>
        <dc:type
           rdf:resource="http://purl.org/dc/dcmitype/StillImage" />
        <dc:title>King of Spades inverted</dc:title>
      </cc:Work>
    </rdf:RDF>
  </metadata>
  <defs
     id="defs26" />
  <sodipodi:namedview
     inkscape:current-layer="svg22"
     inkscape:window-maximized="0"
     inkscape:window-y="69"
     inkscape:window-x="26"
     inkscape:cy="51.525298"
     inkscape:cx="14.006697"
     inkscape:zoom="5.376"
     showgrid="false"
     id="namedview24"
     inkscape:window-height="870"
     inkscape:window-width="1381"
     inkscape:pageshadow="2"
     inkscape:pageopacity="0"
     guidetolerance="10"
     gridtolerance="10"
     objecttolerance="10"
     borderopacity="1"
     inkscape:document-rotation="0"
     bordercolor="#666666"
     pagecolor="#ffffff"
     units="px" />
  <title
     id="title10">King of Spades inverted</title>
  <desc
     id="desc12">Created with Sketch.</desc>
  <path
     d="m 15.40605,11.657822 c 0.254945,-0.0033 0.460617,-0.214894 0.460617,-0.475432 0,-0.262596 -0.208934,-0.475472 -0.466666,-0.475472 -0.257733,0 -0.466667,0.212876 -0.466667,0.475472 0,0.181364 0.09966,0.339012 0.246234,0.41919 L 14.46343,12.604848 12.237679,9.883552 C 12.556302,9.832522 12.8,9.551547 12.8,9.212579 c 0,-0.375137 -0.298476,-0.679246 -0.666667,-0.679246 -0.368189,0 -0.666667,0.304109 -0.666667,0.679246 0,0.338968 0.243698,0.619945 0.562322,0.670973 L 9.8032365,12.604848 9.0870985,11.60158 c 0.146571,-0.08018 0.246235,-0.237826 0.246235,-0.41919 0,-0.262596 -0.208934,-0.475472 -0.466667,-0.475472 -0.257732,0 -0.466666,0.212876 -0.466666,0.475472 0,0.260538 0.205672,0.472132 0.460616,0.475432 l -0.342007,1.277688 -1.289655,-0.893512 c 0.145348,-0.1246 0.237712,-0.311303 0.237712,-0.519985 0,-0.375137 -0.298476,-0.679246 -0.666666,-0.679246 -0.36819,0 -0.666667,0.304109 -0.666667,0.679246 0,0.375136 0.298477,0.679245 0.666667,0.679245 0.112438,0 0.218375,-0.02836 0.311296,-0.07844 l 0.488704,2.11618 v 1.494339 h 9.0666655 v -1.494339 l 0.488704,-2.11618 c 0.09292,0.05008 0.198858,0.07844 0.311296,0.07844 0.36819,0 0.666667,-0.304109 0.666667,-0.679245 0,-0.375137 -0.298477,-0.679246 -0.666667,-0.679246 -0.36819,0 -0.666666,0.304109 -0.666666,0.679246 0,0.208682 0.09236,0.395385 0.237712,0.519985 l -1.289655,0.893512 z m -0.854583,1.054662 0.726319,-1.017533 0.35369,1.32133 -0.530766,0.367731 z m -4.8362665,0 -0.549243,0.671528 -0.530766,-0.367731 0.35369,-1.32133 z M 5.3333335,0 H 18.666666 c 0.662742,0 1.2,0.5372583 1.2,1.2 v 21.6 c 0,0.662742 -0.537258,1.2 -1.2,1.2 H 5.3333335 c -0.662742,0 -1.2,-0.537258 -1.2,-1.2 V 1.2 c 0,-0.6627417 0.537258,-1.2 1.2,-1.2 z m 1.979297,20.572422 c 0.272624,0.17493 0.641971,0.144987 0.881482,-0.08983 0.274517,-0.269136 0.274517,-0.705493 0,-0.974629 l -0.994112,-0.97463 -0.994113,0.97463 c -0.274516,0.269136 -0.274516,0.705493 0,0.974629 0.239511,0.234817 0.608859,0.26476 0.881482,0.08983 -0.05174,0.368269 -0.258839,0.688102 -0.554562,0.894245 h 1.334385 C 7.5714705,21.260524 7.3643705,20.940691 7.3126305,20.572422 Z M 16.91263,4.5724221 c 0.272624,0.1749302 0.641971,0.1449867 0.881482,-0.08983 0.274517,-0.2691363 0.274517,-0.7054928 0,-0.9746293 L 16.8,2.5333333 15.805887,3.5079627 c -0.274516,0.2691365 -0.274516,0.705493 0,0.9746293 0.239511,0.2348168 0.608859,0.2647603 0.881482,0.08983 -0.05174,0.3682688 -0.258839,0.688102 -0.554562,0.894245 h 1.334385 C 17.17147,5.260524 16.96437,4.9406909 16.91263,4.5724221 Z"
     fill="#000000"
     fill-rule="nonzero"
     id="foreground"
     inkscape:connector-curvature="0"
     style="stroke:none;stroke-width:0.266667" />
  <text
     id="text18"
     font-family="'Helvetica Neue', Helvetica, Arial-Unicode, Arial, Sans-serif"
     font-weight="bold"
     font-size="5px"
     fill="#000000"
     y="124.11459"
     x="0.18601191">Created by Joel Wisneski</text>
  <text
     id="text20"
     font-family="'Helvetica Neue', Helvetica, Arial-Unicode, Arial, Sans-serif"
     font-weight="bold"
     font-size="5px"
     fill="#000000"
     y="129.11458"
     x="0.18601191">from the Noun Project</text>
</svg>
