<?xml version="1.0" encoding="UTF-8" standalone="no"?>
<svg
   xmlns:dc="http://purl.org/dc/elements/1.1/"
   xmlns:cc="http://creativecommons.org/ns#"
   xmlns:rdf="http://www.w3.org/1999/02/22-rdf-syntax-ns#"
   xmlns:svg="http://www.w3.org/2000/svg"
   xmlns="http://www.w3.org/2000/svg"
   xmlns:sodipodi="http://sodipodi.sourceforge.net/DTD/sodipodi-0.dtd"
   xmlns:inkscape="http://www.inkscape.org/namespaces/inkscape"
   height="100px"
   width="100px"
   fill="#000000"
   version="1.1"
   x="0px"
   y="0px"
   viewBox="0 0 100 100"
   enable-background="new 0 0 100 100"
   xml:space="preserve"
   id="svg4170"
   inkscape:version="0.91 r13725"
   sodipodi:docname="coin.svg"><metadata
     id="metadata4178"><rdf:RDF><cc:Work
         rdf:about=""><dc:format>image/svg+xml</dc:format><dc:type
           rdf:resource="http://purl.org/dc/dcmitype/StillImage" /><dc:title></dc:title></cc:Work></rdf:RDF></metadata><defs
     id="defs4176" /><sodipodi:namedview
     pagecolor="#ffffff"
     bordercolor="#666666"
     borderopacity="1"
     objecttolerance="10"
     gridtolerance="10"
     guidetolerance="10"
     inkscape:pageopacity="0"
     inkscape:pageshadow="2"
     inkscape:window-width="1393"
     inkscape:window-height="825"
     id="namedview4174"
     showgrid="false"
     inkscape:zoom="3.095"
     inkscape:cx="49.557938"
     inkscape:cy="40.380379"
     inkscape:window-x="0"
     inkscape:window-y="0"
     inkscape:window-maximized="0"
     inkscape:current-layer="svg4170" /><path
     style="color:#000000;clip-rule:nonzero;display:inline;overflow:visible;visibility:visible;opacity:1;isolation:auto;mix-blend-mode:normal;color-interpolation:sRGB;color-interpolation-filters:linearRGB;solid-color:#000000;solid-opacity:1;fill:#000000;fill-opacity:1;fill-rule:nonzero;stroke:none;stroke-width:10;stroke-linecap:butt;stroke-linejoin:miter;stroke-miterlimit:4;stroke-dasharray:none;stroke-dashoffset:0;stroke-opacity:1;color-rendering:auto;image-rendering:auto;shape-rendering:auto;text-rendering:auto;enable-background:accumulate"
     d="M 50,0 A 50.000002,50.000002 0 0 0 0,50 50.000002,50.000002 0 0 0 50,100 50.000002,50.000002 0 0 0 100,50 50.000002,50.000002 0 0 0 50,0 Z m -1.8125,16.582031 5.242188,0 0,7.740235 c 3.939731,0.539368 7.000717,2.191791 9.18164,4.958984 2.204375,2.767192 3.306641,6.553916 3.306641,11.361328 l -6.472657,0 c 0,-3.306561 -0.786218,-5.932492 -2.357421,-7.878906 -1.571203,-1.946416 -3.693799,-2.919922 -6.367188,-2.919922 -2.790644,0 -4.924944,0.727693 -6.402344,2.181641 -1.477399,1.430498 -2.214843,3.436039 -2.214843,6.015625 0,2.39198 0.77256,4.301924 2.320312,5.732422 1.571203,1.407047 4.140559,2.696601 7.705078,3.86914 3.58797,1.149089 6.377778,2.426937 8.371094,3.833984 2.016768,1.383596 3.493609,3.002857 4.431641,4.855469 0.961482,1.852613 1.443359,4.02203 1.443359,6.507813 0,3.963183 -1.19591,7.150976 -3.587891,9.566406 -2.368529,2.415431 -5.69874,3.847404 -9.990234,4.292969 l 0,6.71875 -5.207031,0 0,-6.71875 C 43.227998,76.300556 39.804143,74.751528 37.318359,72.054688 34.856027,69.334396 33.625,65.653022 33.625,61.009766 l 6.507812,0 c 0,3.259659 0.856452,5.768534 2.56836,7.527343 1.711907,1.75881 4.138845,2.638672 7.28125,2.638672 3.072053,0 5.487284,-0.739397 7.246094,-2.216797 1.758809,-1.477399 2.638672,-3.492692 2.638672,-6.048828 0,-2.157472 -0.762808,-3.975725 -2.28711,-5.453125 -1.50085,-1.4774 -4.044843,-2.813776 -7.632812,-4.009765 -4.995017,-1.524302 -8.641276,-3.506431 -10.939454,-5.945313 -2.274725,-2.462332 -3.412109,-5.579893 -3.412109,-9.355469 0,-3.845928 1.113972,-7.000558 3.341797,-9.46289 2.251275,-2.462333 5.333719,-3.927469 9.25,-4.396485 l 0,-7.705078 z"
     id="foreground"
     inkscape:connector-curvature="0" /></svg>