<?xml version="1.0" encoding="UTF-8" standalone="no"?>
<svg
   xmlns:dc="http://purl.org/dc/elements/1.1/"
   xmlns:cc="http://creativecommons.org/ns#"
   xmlns:rdf="http://www.w3.org/1999/02/22-rdf-syntax-ns#"
   xmlns:svg="http://www.w3.org/2000/svg"
   xmlns="http://www.w3.org/2000/svg"
   xmlns:sodipodi="http://sodipodi.sourceforge.net/DTD/sodipodi-0.dtd"
   xmlns:inkscape="http://www.inkscape.org/namespaces/inkscape"
   sodipodi:docname="coin.svg"
   inkscape:version="1.0 (4035a4f, 2020-05-01)"
   id="svg4170"
   xml:space="preserve"
   enable-background="new 0 0 100 100"
   viewBox="0 0 24 24"
   y="0px"
   x="0px"
   version="1.1"
   fill="#000000"
   width="24"
   height="24"><metadata
     id="metadata4178"><rdf:RDF><cc:Work
         rdf:about=""><dc:format>image/svg+xml</dc:format><dc:type
           rdf:resource="http://purl.org/dc/dcmitype/StillImage" /><dc:title></dc:title></cc:Work></rdf:RDF></metadata><defs
     id="defs4176" /><sodipodi:namedview
     inkscape:document-rotation="0"
     inkscape:current-layer="svg4170"
     inkscape:window-maximized="0"
     inkscape:window-y="23"
     inkscape:window-x="0"
     inkscape:cy="40.380379"
     inkscape:cx="2.8697312"
     inkscape:zoom="3.095"
     showgrid="false"
     id="namedview4174"
     inkscape:window-height="825"
     inkscape:window-width="1393"
     inkscape:pageshadow="2"
     inkscape:pageopacity="0"
     guidetolerance="10"
     gridtolerance="10"
     objecttolerance="10"
     borderopacity="1"
     bordercolor="#666666"
     pagecolor="#ffffff" /><path
     inkscape:connector-curvature="0"
     id="foreground"
     d="M 12,0 A 12,12 0 0 0 0,12 12,12 0 0 0 12,24 12,12 0 0 0 24,12 12,12 0 0 0 12,0 Z m -0.435,3.9796874 h 1.258125 v 1.8576564 c 0.945536,0.1294484 1.680172,0.5260299 2.203594,1.1901562 0.52905,0.6641261 0.793594,1.5729398 0.793594,2.7267187 h -1.553438 c 0,-0.7935746 -0.188692,-1.4237981 -0.565781,-1.8909374 C 13.324005,7.3961414 12.814582,7.1625 12.172969,7.1625 c -0.669755,0 -1.181987,0.1746463 -1.536563,0.5235938 -0.354576,0.3433196 -0.531562,0.8246494 -0.531562,1.44375 0,0.5740752 0.185414,1.0324622 0.556875,1.3757812 0.377088,0.337691 0.993734,0.647184 1.849218,0.928594 0.861113,0.275781 1.530667,0.582465 2.009063,0.920156 0.484024,0.332063 0.838466,0.720686 1.063594,1.165312 0.230756,0.444628 0.346406,0.965288 0.346406,1.561876 0,0.951163 -0.287018,1.716234 -0.861094,2.295937 -0.568447,0.579703 -1.367697,0.923377 -2.397656,1.030313 v 1.6125 h -1.249687 v -1.6125 C 10.37472,18.312133 9.5529943,17.940367 8.9564062,17.293125 8.3654465,16.640255 8.07,15.756725 8.07,14.642344 h 1.5618749 c 0,0.782318 0.2055485,1.384448 0.6164061,1.806562 0.410858,0.422115 0.993323,0.633281 1.7475,0.633281 0.737293,0 1.316948,-0.177455 1.739063,-0.532031 0.422114,-0.354576 0.633281,-0.838246 0.633281,-1.451719 0,-0.517793 -0.183074,-0.954174 -0.548906,-1.30875 C 13.459015,13.435111 12.848456,13.114381 11.987344,12.827344 10.78854,12.461511 9.9134376,11.9858 9.3618749,11.400469 8.8159409,10.809509 8.5429687,10.061294 8.5429687,9.1551562 8.5429687,8.2321334 8.810322,7.4750222 9.345,6.8840626 9.885306,6.2931026 10.625093,5.94147 11.565,5.8289062 Z"
     style="color:#000000;clip-rule:nonzero;display:inline;overflow:visible;visibility:visible;opacity:1;isolation:auto;mix-blend-mode:normal;color-interpolation:sRGB;color-interpolation-filters:linearRGB;solid-color:#000000;solid-opacity:1;fill:#000000;fill-opacity:1;fill-rule:nonzero;stroke:none;stroke-width:2.4;stroke-linecap:butt;stroke-linejoin:miter;stroke-miterlimit:4;stroke-dasharray:none;stroke-dashoffset:0;stroke-opacity:1;color-rendering:auto;image-rendering:auto;shape-rendering:auto;text-rendering:auto;enable-background:accumulate" /></svg>
