<?xml version="1.0" encoding="UTF-8" standalone="no"?>
<svg
   xmlns:dc="http://purl.org/dc/elements/1.1/"
   xmlns:cc="http://creativecommons.org/ns#"
   xmlns:rdf="http://www.w3.org/1999/02/22-rdf-syntax-ns#"
   xmlns:svg="http://www.w3.org/2000/svg"
   xmlns="http://www.w3.org/2000/svg"
   xmlns:sodipodi="http://sodipodi.sourceforge.net/DTD/sodipodi-0.dtd"
   xmlns:inkscape="http://www.inkscape.org/namespaces/inkscape"
   height="24"
   width="24"
   fill="#000000"
   version="1.1"
   x="0px"
   y="0px"
   viewBox="0 0 24 24"
   enable-background="new 0 0 100 100"
   xml:space="preserve"
   id="svg4170"
   inkscape:version="1.0 (4035a4f, 2020-05-01)"
   sodipodi:docname="dice_pip_5.svg"><metadata
     id="metadata4178"><rdf:RDF><cc:Work
         rdf:about=""><dc:format>image/svg+xml</dc:format><dc:type
           rdf:resource="http://purl.org/dc/dcmitype/StillImage" /><dc:title></dc:title></cc:Work></rdf:RDF></metadata><defs
     id="defs4176" /><sodipodi:namedview
     pagecolor="#ffffff"
     bordercolor="#666666"
     borderopacity="1"
     objecttolerance="10"
     gridtolerance="10"
     guidetolerance="10"
     inkscape:pageopacity="0"
     inkscape:pageshadow="2"
     inkscape:window-width="1393"
     inkscape:window-height="825"
     id="namedview4174"
     showgrid="false"
     inkscape:zoom="11.538666"
     inkscape:cx="7.1434192"
     inkscape:cy="17.107915"
     inkscape:window-x="0"
     inkscape:window-y="25"
     inkscape:window-maximized="0"
     inkscape:current-layer="svg4170"
     inkscape:document-rotation="0" /><path
     d="M 4.8535156 0 C 2.1648164 0 0 2.1648164 0 4.8535156 L 0 19.146484 C 0 21.835184 2.1648164 24 4.8535156 24 L 19.146484 24 C 21.835184 24 24 21.835184 24 19.146484 L 24 4.8535156 C 24 2.1648164 21.835184 0 19.146484 0 L 4.8535156 0 z M 5.9472656 3 A 3 2.999957 0 0 1 5.9550781 3 A 3 2.999957 0 0 1 6 3 A 3 2.999957 0 0 1 9 6 A 3 2.999957 0 0 1 6 9 A 3 2.999957 0 0 1 3 6 A 3 2.999957 0 0 1 5.9472656 3 z M 17.949219 3 A 3 2.999957 0 0 1 18 3 A 3 2.999957 0 0 1 18.044922 3 A 3 2.999957 0 0 1 18.052734 3 A 3 2.999957 0 0 1 21 6 A 3 2.999957 0 0 1 18 9 A 3 2.999957 0 0 1 15 6 A 3 2.999957 0 0 1 17.949219 3 z M 11.949219 9 A 3 2.999957 0 0 1 12 9 A 3 2.999957 0 0 1 12.044922 9 A 3 2.999957 0 0 1 12.052734 9 A 3 2.999957 0 0 1 15 12 A 3 2.999957 0 0 1 12 15 A 3 2.999957 0 0 1 9 12 A 3 2.999957 0 0 1 11.949219 9 z M 5.9492188 15 A 3 2.999957 0 0 1 6 15 A 3 2.999957 0 0 1 6.0449219 15 A 3 2.999957 0 0 1 6.0527344 15 A 3 2.999957 0 0 1 9 18 A 3 2.999957 0 0 1 6 21 A 3 2.999957 0 0 1 3 18 A 3 2.999957 0 0 1 5.9492188 15 z M 17.947266 15 A 3 2.999957 0 0 1 17.955078 15 A 3 2.999957 0 0 1 18 15 A 3 2.999957 0 0 1 21 18 A 3 2.999957 0 0 1 18 21 A 3 2.999957 0 0 1 15 18 A 3 2.999957 0 0 1 17.947266 15 z "
     style="fill:#000000;stroke-width:2.23856"
     id="foreground" /></svg>
