<?xml version="1.0" encoding="UTF-8" standalone="no"?>
<svg
   xmlns:dc="http://purl.org/dc/elements/1.1/"
   xmlns:cc="http://creativecommons.org/ns#"
   xmlns:rdf="http://www.w3.org/1999/02/22-rdf-syntax-ns#"
   xmlns:svg="http://www.w3.org/2000/svg"
   xmlns="http://www.w3.org/2000/svg"
   xmlns:sodipodi="http://sodipodi.sourceforge.net/DTD/sodipodi-0.dtd"
   xmlns:inkscape="http://www.inkscape.org/namespaces/inkscape"
   height="24"
   width="24"
   fill="#000000"
   version="1.1"
   x="0px"
   y="0px"
   viewBox="0 0 24 24"
   enable-background="new 0 0 100 100"
   xml:space="preserve"
   id="svg4170"
   inkscape:version="1.0 (4035a4f, 2020-05-01)"
   sodipodi:docname="dice_pip_6.svg"><metadata
     id="metadata4178"><rdf:RDF><cc:Work
         rdf:about=""><dc:format>image/svg+xml</dc:format><dc:type
           rdf:resource="http://purl.org/dc/dcmitype/StillImage" /><dc:title></dc:title></cc:Work></rdf:RDF></metadata><defs
     id="defs4176" /><sodipodi:namedview
     pagecolor="#ffffff"
     bordercolor="#666666"
     borderopacity="1"
     objecttolerance="10"
     gridtolerance="10"
     guidetolerance="10"
     inkscape:pageopacity="0"
     inkscape:pageshadow="2"
     inkscape:window-width="1393"
     inkscape:window-height="825"
     id="namedview4174"
     showgrid="false"
     inkscape:zoom="11.538666"
     inkscape:cx="7.1434192"
     inkscape:cy="17.107915"
     inkscape:window-x="0"
     inkscape:window-y="25"
     inkscape:window-maximized="0"
     inkscape:current-layer="svg4170"
     inkscape:document-rotation="0" /><path
     d="M 4.8535156 0 C 2.1648164 0 0 2.1648164 0 4.8535156 L 0 19.146484 C 0 21.835184 2.1648164 24 4.8535156 24 L 19.146484 24 C 21.835184 24 24 21.835184 24 19.146484 L 24 4.8535156 C 24 2.1648164 21.835184 0 19.146484 0 L 4.8535156 0 z M 6.9472656 2 A 3 2.999957 0 0 1 6.9550781 2 A 3 2.999957 0 0 1 7 2 A 3 2.999957 0 0 1 10 5 A 3 2.999957 0 0 1 7 8 A 3 2.999957 0 0 1 4 5 A 3 2.999957 0 0 1 6.9472656 2 z M 16.947266 2 A 3 2.999957 0 0 1 16.955078 2 A 3 2.999957 0 0 1 17 2 A 3 2.999957 0 0 1 20 5 A 3 2.999957 0 0 1 17 8 A 3 2.999957 0 0 1 14 5 A 3 2.999957 0 0 1 16.947266 2 z M 6.9472656 9 A 3 2.999957 0 0 1 6.9550781 9 A 3 2.999957 0 0 1 7 9 A 3 2.999957 0 0 1 10 12 A 3 2.999957 0 0 1 7 15 A 3 2.999957 0 0 1 4 12 A 3 2.999957 0 0 1 6.9472656 9 z M 16.947266 9 A 3 2.999957 0 0 1 16.955078 9 A 3 2.999957 0 0 1 17 9 A 3 2.999957 0 0 1 20 12 A 3 2.999957 0 0 1 17 15 A 3 2.999957 0 0 1 14 12 A 3 2.999957 0 0 1 16.947266 9 z M 6.9472656 16 A 3 2.999957 0 0 1 6.9550781 16 A 3 2.999957 0 0 1 7 16 A 3 2.999957 0 0 1 10 19 A 3 2.999957 0 0 1 7 22 A 3 2.999957 0 0 1 4 19 A 3 2.999957 0 0 1 6.9472656 16 z M 16.947266 16 A 3 2.999957 0 0 1 16.955078 16 A 3 2.999957 0 0 1 17 16 A 3 2.999957 0 0 1 20 19 A 3 2.999957 0 0 1 17 22 A 3 2.999957 0 0 1 14 19 A 3 2.999957 0 0 1 16.947266 16 z "
     style="fill:#000000;stroke-width:2.23856"
     id="foreground" /></svg>
