<?xml version="1.0" encoding="UTF-8" standalone="no"?>
<svg
   xmlns:dc="http://purl.org/dc/elements/1.1/"
   xmlns:cc="http://creativecommons.org/ns#"
   xmlns:rdf="http://www.w3.org/1999/02/22-rdf-syntax-ns#"
   xmlns:svg="http://www.w3.org/2000/svg"
   xmlns="http://www.w3.org/2000/svg"
   xmlns:sodipodi="http://sodipodi.sourceforge.net/DTD/sodipodi-0.dtd"
   xmlns:inkscape="http://www.inkscape.org/namespaces/inkscape"
   height="48"
   width="48"
   sodipodi:docname="icon.svg"
   inkscape:version="1.0 (4035a4f, 2020-05-01)"
   id="svg3649"
   xml:space="preserve"
   enable-background="new 0 0 512 512"
   viewBox="0 0 48 48"
   y="0px"
   x="0px"
   version="1.1"><metadata
     id="metadata3661"><rdf:RDF><cc:Work
         rdf:about=""><dc:format>image/svg+xml</dc:format><dc:type
           rdf:resource="http://purl.org/dc/dcmitype/StillImage" /><dc:title /></cc:Work></rdf:RDF></metadata><defs
     id="defs3659" /><sodipodi:namedview
     inkscape:document-rotation="0"
     inkscape:current-layer="svg3649"
     inkscape:window-maximized="0"
     inkscape:window-y="23"
     inkscape:window-x="0"
     inkscape:cy="50.07101"
     inkscape:cx="40.485975"
     inkscape:zoom="5.7550881"
     showgrid="false"
     id="namedview3657"
     inkscape:window-height="1005"
     inkscape:window-width="1680"
     inkscape:pageshadow="2"
     inkscape:pageopacity="0"
     guidetolerance="10"
     gridtolerance="10"
     objecttolerance="10"
     borderopacity="1"
     bordercolor="#666666"
     pagecolor="#ffffff" /><path
     d="M 31.500001,25.125 A 5.2500001,5.2500001 0 0 1 36.75,30.375001 5.2500001,5.2500001 0 0 1 31.500001,35.625 5.2500001,5.2500001 0 0 1 26.25,30.375001 5.2500001,5.2500001 0 0 1 31.500001,25.125 Z m -13.875002,5.250001 -2.25,2.25 V 37.875 h 2.25 z M 5.9999998,5.9999998 V 42 L 15.374999,32.625001 V 25.040039 A 7.5000001,7.5000001 0 0 1 9.0000003,17.624999 7.5000001,7.5000001 0 0 1 16.499999,10.125 7.5000001,7.5000001 0 0 1 24,17.624999 a 7.5000001,7.5000001 0 0 1 -6.375001,7.41504 v 5.334962 L 30.375001,17.624999 V 10.125 h 2.25 v 5.249999 L 42,5.9999998 Z M 16.499999,12.375 A 5.2500001,5.2500001 0 0 0 11.25,17.624999 5.2500001,5.2500001 0 0 0 16.499999,22.875 5.2500001,5.2500001 0 0 0 21.75,17.624999 5.2500001,5.2500001 0 0 0 16.499999,12.375 Z M 48,0 42,6 V 42 H 6 l -6,6 h 48 z m -15.374999,15.374999 -2.25,2.25 v 5.334962 A 7.5000001,7.5000001 0 0 0 24,30.375001 7.5000001,7.5000001 0 0 0 31.500001,37.875 7.5000001,7.5000001 0 0 0 39,30.375001 7.5000001,7.5000001 0 0 0 32.625001,22.959961 Z"
     style="fill:#000000;stroke-width:2.07345"
     id="path19" /></svg>
