<?xml version="1.0" encoding="UTF-8" standalone="no"?>
<svg
   xmlns:dc="http://purl.org/dc/elements/1.1/"
   xmlns:cc="http://creativecommons.org/ns#"
   xmlns:rdf="http://www.w3.org/1999/02/22-rdf-syntax-ns#"
   xmlns:svg="http://www.w3.org/2000/svg"
   xmlns="http://www.w3.org/2000/svg"
   xmlns:sodipodi="http://sodipodi.sourceforge.net/DTD/sodipodi-0.dtd"
   xmlns:inkscape="http://www.inkscape.org/namespaces/inkscape"
   height="100"
   width="100"
   sodipodi:docname="icon.svg"
   inkscape:version="1.0 (4035a4f, 2020-05-01)"
   id="svg3649"
   xml:space="preserve"
   enable-background="new 0 0 512 512"
   viewBox="0 0 100 100"
   y="0px"
   x="0px"
   version="1.1"><metadata
     id="metadata3661"><rdf:RDF><cc:Work
         rdf:about=""><dc:format>image/svg+xml</dc:format><dc:type
           rdf:resource="http://purl.org/dc/dcmitype/StillImage" /><dc:title></dc:title></cc:Work></rdf:RDF></metadata><defs
     id="defs3659" /><sodipodi:namedview
     inkscape:document-rotation="0"
     inkscape:current-layer="svg3649"
     inkscape:window-maximized="0"
     inkscape:window-y="23"
     inkscape:window-x="0"
     inkscape:cy="261.58084"
     inkscape:cx="240.27891"
     inkscape:zoom="0.7375"
     showgrid="false"
     id="namedview3657"
     inkscape:window-height="792"
     inkscape:window-width="1323"
     inkscape:pageshadow="2"
     inkscape:pageopacity="0"
     guidetolerance="10"
     gridtolerance="10"
     objecttolerance="10"
     borderopacity="1"
     bordercolor="#666666"
     pagecolor="#ffffff" /><path
     inkscape:connector-curvature="0"
     id="foreground"
     d="m 12.5,0 v 100 h 75 V 0 Z m 7.421875,9.375 h 22.06459 c 4.361717,0 7.877575,1.235056 10.548015,3.705215 2.67045,2.447906 4.00582,5.897012 4.00582,10.347748 0,3.827635 -1.19056,7.165871 -3.5717,10.014344 -2.38115,2.826216 -6.041825,4.239273 -10.982135,4.239273 H 26.564789 v 20.729445 h -6.642914 z m 6.642914,5.707931 v 16.990663 h 13.218307 c 2.981998,0 5.396677,-0.634313 7.243728,-1.902772 1.869316,-1.268459 2.804186,-3.504759 2.804186,-6.709289 0,-3.605097 -1.335373,-6.052961 -4.005815,-7.343674 -1.46874,-0.689865 -3.482918,-1.034928 -6.042099,-1.034928 z M 44.631576,41.588975 H 51.27449 V 62.31842 h 15.42168 c 4.94031,0 8.60098,1.413057 10.98213,4.239273 2.38114,2.848473 3.5717,6.186328 3.5717,10.013963 0,4.450737 -1.33499,7.900223 -4.00543,10.348129 C 74.57413,89.389943 71.05788,90.625 66.69617,90.625 H 44.631576 Z m 6.642914,26.337431 v 16.990662 h 13.21869 c 2.55918,0 4.57298,-0.345062 6.04172,-1.034927 2.67044,-1.290713 4.00581,-3.738577 4.00581,-7.343674 0,-3.20453 -0.93487,-5.441211 -2.80418,-6.70967 -1.84706,-1.268461 -4.26135,-1.902391 -7.24335,-1.902391 z"
     style="color:#000000;clip-rule:nonzero;display:inline;overflow:visible;visibility:visible;opacity:1;isolation:auto;mix-blend-mode:normal;color-interpolation:sRGB;color-interpolation-filters:linearRGB;solid-color:#000000;solid-opacity:1;fill:#000000;fill-opacity:1;fill-rule:nonzero;stroke:none;stroke-width:1.95312;stroke-linecap:butt;stroke-linejoin:miter;stroke-miterlimit:4;stroke-dasharray:none;stroke-dashoffset:0;stroke-opacity:1;color-rendering:auto;image-rendering:auto;shape-rendering:auto;text-rendering:auto;enable-background:accumulate" /></svg>
