<?xml version="1.0" encoding="UTF-8" standalone="no"?>
<svg
   xmlns:dc="http://purl.org/dc/elements/1.1/"
   xmlns:cc="http://creativecommons.org/ns#"
   xmlns:rdf="http://www.w3.org/1999/02/22-rdf-syntax-ns#"
   xmlns:svg="http://www.w3.org/2000/svg"
   xmlns="http://www.w3.org/2000/svg"
   xmlns:sodipodi="http://sodipodi.sourceforge.net/DTD/sodipodi-0.dtd"
   xmlns:inkscape="http://www.inkscape.org/namespaces/inkscape"
   version="1.1"
   x="0px"
   y="0px"
   viewBox="0 0 512 512"
   enable-background="new 0 0 512 512"
   xml:space="preserve"
   id="svg3649"
   inkscape:version="0.91 r13725"
   sodipodi:docname="icon.svg"
   width="512"
   height="512"><metadata
     id="metadata3661"><rdf:RDF><cc:Work
         rdf:about=""><dc:format>image/svg+xml</dc:format><dc:type
           rdf:resource="http://purl.org/dc/dcmitype/StillImage" /><dc:title></dc:title></cc:Work></rdf:RDF></metadata><defs
     id="defs3659" /><sodipodi:namedview
     pagecolor="#ffffff"
     bordercolor="#666666"
     borderopacity="1"
     objecttolerance="10"
     gridtolerance="10"
     guidetolerance="10"
     inkscape:pageopacity="0"
     inkscape:pageshadow="2"
     inkscape:window-width="1323"
     inkscape:window-height="792"
     id="namedview3657"
     showgrid="false"
     inkscape:zoom="0.7375"
     inkscape:cx="240.27891"
     inkscape:cy="261.58084"
     inkscape:window-x="0"
     inkscape:window-y="0"
     inkscape:window-maximized="0"
     inkscape:current-layer="svg3649" /><path
     style="color:#000000;clip-rule:nonzero;display:inline;overflow:visible;visibility:visible;opacity:1;isolation:auto;mix-blend-mode:normal;color-interpolation:sRGB;color-interpolation-filters:linearRGB;solid-color:#000000;solid-opacity:1;fill:#000000;fill-opacity:1;fill-rule:nonzero;stroke:none;stroke-width:10;stroke-linecap:butt;stroke-linejoin:miter;stroke-miterlimit:4;stroke-dasharray:none;stroke-dashoffset:0;stroke-opacity:1;color-rendering:auto;image-rendering:auto;shape-rendering:auto;text-rendering:auto;enable-background:accumulate"
     d="m 64,0 0,512 384,0 L 448,0 64,0 Z m 38,48 112.9707,0 c 22.33199,0 40.3332,6.323488 54.00586,18.970703 13.67267,12.533278 20.50977,30.192698 20.50977,52.980467 0,19.59749 -6.09567,36.68926 -18.28711,51.27344 -12.1915,14.47023 -30.93413,21.70508 -56.22852,21.70508 l -78.95898,0 0,106.13476 -34.01172,0 L 102,48 Z m 34.01172,29.224609 0,86.992191 67.67773,0 c 15.26783,0 27.63099,-3.24768 37.08789,-9.74219 9.5709,-6.49451 14.35743,-17.94437 14.35743,-34.35156 0,-18.4581 -6.83711,-30.991162 -20.50977,-37.599612 -7.51995,-3.532107 -17.83254,-5.298829 -30.93555,-5.298829 l -67.67773,0 z m 92.50195,135.710941 34.01172,0 0,106.13476 78.95899,0 c 25.29438,0 44.03702,7.23485 56.22851,21.70508 12.19144,14.58418 18.28711,31.674 18.28711,51.27149 0,22.78777 -6.83515,40.44914 -20.50781,52.98242 C 381.81952,457.67651 363.81636,464 341.48438,464 l -112.97071,0 0,-251.06445 z m 34.01172,134.84765 0,86.99219 67.67969,0 c 13.103,0 23.41364,-1.76672 30.93359,-5.29883 13.67267,-6.60845 20.50977,-19.14151 20.50977,-37.59961 0,-16.40719 -4.78653,-27.859 -14.35742,-34.35351 -9.45691,-6.49452 -21.81812,-9.74024 -37.08594,-9.74024 l -67.67969,0 z"
     id="foreground"
     inkscape:connector-curvature="0" /></svg>